# Blender 4.0.2
# www.blender.org
mtllib playground.mtl
o Cube
v 3.000000 0.000000 -6.000000
v 3.000000 6.000000 6.000000
v 3.000000 0.000000 6.000000
v -3.000000 0.000000 -6.000000
v -3.000000 6.000000 6.000000
v -3.000000 0.000000 6.000000
vn -0.0000 -0.0000 1.0000
vn -1.0000 -0.0000 -0.0000
vn 1.0000 -0.0000 -0.0000
vn -0.0000 0.8944 -0.4472
vt 0.375000 0.750000
vt 0.625000 0.750000
vt 0.625000 1.000000
vt 0.375000 1.000000
vt 0.375000 0.000000
vt 0.625000 0.000000
vt 0.375000 0.250000
vt 0.375000 0.500000
s 0
usemtl Material
f 3/1/1 2/2/1 5/3/1 6/4/1
f 6/5/2 5/6/2 4/7/2
f 1/8/3 2/2/3 3/1/3
f 4/7/4 5/6/4 2/2/4 1/8/4
o Plane
v -16.391356 0.000000 24.587032
v 16.391356 0.000000 24.587032
v -16.391356 0.000000 -24.587032
v 16.391356 0.000000 -24.587032
vn -0.0000 1.0000 -0.0000
vt 0.000000 0.000000
vt 1.000000 0.000000
vt 1.000000 1.000000
vt 0.000000 1.000000
s 0
f 7/9/5 8/10/5 10/11/5 9/12/5
o Cube.001
v -3.000000 0.000000 12.000000
v -3.000000 6.000000 12.000000
v -3.000000 0.000000 6.000000
v -3.000000 6.000000 6.000000
v 3.000000 0.000000 12.000000
v 3.000000 6.000000 12.000000
v 3.000000 0.000000 6.000000
v 3.000000 6.000000 6.000000
vn -1.0000 -0.0000 -0.0000
vn -0.0000 -0.0000 -1.0000
vn 1.0000 -0.0000 -0.0000
vn -0.0000 -0.0000 1.0000
vn -0.0000 1.0000 -0.0000
vt 0.375000 0.000000
vt 0.625000 0.000000
vt 0.625000 0.250000
vt 0.375000 0.250000
vt 0.625000 0.500000
vt 0.375000 0.500000
vt 0.625000 0.750000
vt 0.375000 0.750000
vt 0.625000 1.000000
vt 0.375000 1.000000
vt 0.875000 0.500000
vt 0.875000 0.750000
s 0
f 11/13/6 12/14/6 14/15/6 13/16/6
f 13/16/7 14/15/7 18/17/7 17/18/7
f 17/18/8 18/17/8 16/19/8 15/20/8
f 15/20/9 16/19/9 12/21/9 11/22/9
f 18/17/10 14/23/10 12/24/10 16/19/10
